<svg id="Capa_1" enable-background="new 0 0 512.067 512.067" height="512" viewBox="0 0 512.067 512.067" width="512" xmlns="http://www.w3.org/2000/svg"><g><path d="m507.177 88.728c6.12-5.584 6.553-15.071.969-21.191s-15.072-6.555-21.191-.969c-41.532 37.897-65.422 23.917-101.584 2.754-32.491-19.013-72.631-42.506-129.338-18.279-56.707-24.228-96.848-.734-129.338 18.279-36.162 21.162-60.052 35.144-101.584-2.754-6.12-5.584-15.607-5.15-21.191.969-5.584 6.12-5.15 15.607.969 21.191 20.354 18.574 38.749 27.558 55.661 30.466l-36.781 126.212c-.007.023-.013.046-.02.068l-.063.217c.002.002.004.004.006.006-.387 1.331-.605 2.735-.605 4.191v45.281c0 27.691 22.528 50.219 50.219 50.219h10.061c27.691 0 50.22-22.528 50.22-50.219v-45.281c0-2.228-.499-4.335-1.37-6.236l-36.847-126.437c16.685-4.567 31.96-13.505 46.477-22 29.813-17.446 58.077-33.983 99.149-17.91v227.63c-19.734 4.817-34.428 22.637-34.428 43.833v92.587h-88.359c-8.284 0-15 6.716-15 15s6.716 15 15 15h275.575c8.284 0 15-6.716 15-15s-6.716-15-15-15h-88.359v-92.587c0-21.196-14.694-39.016-34.428-43.833v-227.598c41.113-16.122 69.394.421 99.224 17.878 13.007 7.612 26.621 15.576 41.312 20.436l-37.789 129.657c-.494 1.633-.681 2.957-.681 4.775v44.956c0 27.679 22.519 50.197 50.197 50.197h10.055c27.679 0 50.197-22.519 50.197-50.197v-45.252c0-2.228-.499-4.335-1.37-6.235l-36.03-123.622c18.382-1.818 38.526-10.634 61.065-31.202zm-403.59 206.441c0 11.149-9.07 20.219-20.22 20.219h-10.061c-11.149 0-20.219-9.07-20.219-20.219v-30.281h50.5zm-45.505-60.281 20.166-69.2 20.166 69.2zm217.341 206.467h-38.856v-92.587c0-8.34 6.785-15.125 15.125-15.125h8.606c8.34 0 15.125 6.785 15.125 15.125zm152.775-275.671 20.14 69.104h-40.281zm25.313 129.356c0 11.137-9.061 20.197-20.197 20.197h-10.055c-11.137 0-20.197-9.061-20.197-20.197v-30.252h50.45v30.252z"/></g></svg>